<?xml version="1.0" encoding="UTF-8" standalone="no"?>
<svg width="133px" height="27px" viewBox="0 0 133 27" version="1.1" xmlns="http://www.w3.org/2000/svg" xmlns:xlink="http://www.w3.org/1999/xlink" xmlns:sketch="http://www.bohemiancoding.com/sketch/ns">
    <!-- Generator: Sketch 3.5.1 (25234) - http://www.bohemiancoding.com/sketch -->
    <title>Wordmark</title>
    <desc>Created with Sketch.</desc>
    <defs></defs>
    <g id="Landings-producto" stroke="none" stroke-width="1" fill="none" fill-rule="evenodd" sketch:type="MSPage">
        <g id="landing-gmail" sketch:type="MSArtboardGroup" transform="translate(-159.000000, -5646.000000)" fill="#FFFFFF">
            <g id="FOOTER" sketch:type="MSLayerGroup" transform="translate(0.000000, 5563.000000)">
                <g id="Footer" sketch:type="MSShapeGroup">
                    <g id="LogoStamperyFooter-+-Shape" transform="translate(100.000000, 72.000000)">
                        <g id="LogoStamperyFooter" transform="translate(59.000000, 11.000000)">
                            <g id="Wordmark" transform="translate(0.000000, 0.000000)">
                                <path d="M8.00591716,6.01178782 L8.00591716,7.86640472 C8.28796861,8.03405354 8.62968458,8.15455157 9.03106509,8.22789784 C9.43244559,8.30124411 9.81755441,8.33791749 10.1863905,8.33791749 C10.2948716,7.98166355 10.3816568,7.57825786 10.4467456,7.12770138 C10.5118343,6.67714489 10.5443787,6.23182711 10.5443787,5.79174853 L10.5443787,5.28880157 C10.5443787,5.12115275 10.5226823,4.96398182 10.4792899,4.8172888 C9.74161719,4.52390324 8.98224852,4.31434185 8.20118343,4.18860511 C7.42011834,4.06286837 6.64990122,4 5.89053254,4 C5.08777104,4 4.35552252,4.09954174 3.69378698,4.29862475 C3.03205145,4.49770776 2.46252482,4.77013752 1.9852071,5.11591356 C1.50788938,5.46168959 1.13905325,5.87557318 0.878698225,6.35756385 C0.618343195,6.83955452 0.48816568,7.36345776 0.48816568,7.92927308 C0.48816568,8.85134234 0.678007724,9.60576277 1.05769231,10.1925344 C1.43737689,10.779306 1.90927038,11.2612967 2.47337278,11.6385069 C3.03747518,12.0157171 3.65039464,12.3300589 4.31213018,12.5815324 C4.97386571,12.8330059 5.58678518,13.1001965 6.15088757,13.3831041 C6.71498997,13.6660118 7.18688346,13.9960707 7.56656805,14.3732809 C7.94625263,14.7504912 8.13609467,15.2534381 8.13609467,15.8821218 C8.13609467,16.5946302 7.88658761,17.1656842 7.38757396,17.5952849 C6.88856032,18.0248856 6.22682429,18.2396857 5.40236686,18.2396857 C4.90335322,18.2396857 4.41518754,18.1768173 3.93786982,18.0510806 C3.4605521,17.9253438 3.03747518,17.7472166 2.66863905,17.5166994 L2.66863905,15.3477407 C2.32149885,15.2429602 1.93639053,15.1696135 1.51331361,15.1277014 C1.09023669,15.0857893 0.694279913,15.064833 0.325443787,15.064833 C0.238658612,15.3582186 0.162721893,15.7039946 0.0976331361,16.1021611 C0.0325443787,16.5003276 0,16.8984936 0,17.2966601 C0,17.5481336 0.0162721893,17.8205634 0.048816568,18.1139489 C0.0813609467,18.4073345 0.119329554,18.6378522 0.162721893,18.805501 C1.57297814,19.6018335 3.23274145,20 5.14201183,20 C5.90138051,20 6.63362903,19.9161753 7.3387574,19.7485265 C8.04388577,19.5808777 8.66765269,19.3189258 9.21005917,18.9626719 C9.75246565,18.606418 10.1863905,18.1401439 10.5118343,17.5638507 C10.8372781,16.9875575 11,16.2907662 11,15.4734774 C11,14.572364 10.810158,13.8284219 10.4304734,13.2416503 C10.0507888,12.6548787 9.58431953,12.1676488 9.03106509,11.7799607 C8.47781065,11.3922726 7.87031542,11.0622137 7.20857988,10.7897839 C6.54684435,10.5173541 5.93934911,10.2396857 5.38609467,9.956778 C4.83284024,9.67387033 4.36637097,9.34905059 3.98668639,8.98231827 C3.60700181,8.61558596 3.41715976,8.13883448 3.41715976,7.55206287 C3.41715976,6.96529126 3.65039464,6.49901768 4.11686391,6.15324165 C4.58333317,5.80746562 5.23964497,5.6345776 6.08579882,5.6345776 C6.45463494,5.6345776 6.80719938,5.67125098 7.14349112,5.74459725 C7.47978287,5.81794352 7.76725855,5.90700736 8.00591716,6.01178782 L8.00591716,6.01178782 Z M15.7795527,0.507936508 L15.2364217,4 C14.9382323,4.06349206 14.6187435,4.14814831 14.2779553,4.25396825 C13.937167,4.3597882 13.6389776,4.46560863 13.3833866,4.57142857 C13.2768905,4.78306894 13.1863683,5.05291021 13.1118211,5.38095238 C13.0372739,5.70899455 13,5.98941815 13,6.22222222 L15.2044728,6.22222222 C15.1618745,7.02645486 15.1352501,7.86772471 15.1246006,8.74603175 C15.1139512,9.62433879 15.0979767,10.4761905 15.0766773,11.3015873 C15.0553779,12.1269841 15.0447284,12.8994707 15.0447284,13.6190476 L15.0447284,15.3968254 C15.0447284,17.047619 15.3535678,18.2275134 15.971246,18.9365079 C16.5889242,19.6455025 17.5154418,20 18.7507987,20 C19.3897764,20 20.0447284,19.9259261 20.715655,19.7777778 C21.3865815,19.6296295 22.0415335,19.4179896 22.6805112,19.1428571 C22.7657084,18.9947088 22.8402556,18.8095238 22.9041534,18.5873016 C22.9680511,18.3650794 23,18.137566 23,17.9047619 L23,17.7142857 C23,17.6296295 22.9893505,17.5555556 22.9680511,17.4920635 C22.4781684,17.6190476 21.9723108,17.7195769 21.4504792,17.7936508 C20.9286477,17.8677247 20.4440895,17.9047619 19.9968051,17.9047619 C19.1022364,17.9047619 18.5324815,17.6719578 18.2875399,17.2063492 C18.0425983,16.7407406 17.9201278,15.9894182 17.9201278,14.952381 L17.9201278,6.22222222 L22.6485623,6.22222222 C22.6698617,5.96825397 22.6645367,5.6402118 22.6325879,5.23809524 C22.600639,4.83597867 22.5740151,4.55026439 22.5527157,4.38095238 L17.9201278,4.38095238 L17.9201278,-1.77635684e-15 C17.600639,-1.77635684e-15 17.2225774,0.0529102144 16.7859425,0.158730159 C16.3493076,0.264550103 16.0138444,0.380952381 15.7795527,0.507936508 L15.7795527,0.507936508 Z M33.8322148,17.611002 L33.9888143,17.611002 C34.030574,18.1139489 34.1819539,18.5907009 34.442953,19.0412574 C34.7039521,19.4918139 34.9910515,19.8113949 35.3042506,20 C35.8471288,20 36.4578671,19.9056974 37.1364653,19.7170923 C37.8150635,19.5284872 38.3318421,19.3189258 38.6868009,19.0884086 C38.8956005,18.6692863 39,18.1977736 39,17.6738703 C39,17.5271773 38.9895602,17.411919 38.9686801,17.3280943 C38.6763611,17.4328748 38.3005222,17.5219386 37.8411633,17.5952849 C37.3818045,17.6686311 37.0372854,17.7053045 36.8076063,17.7053045 C36.6823266,17.5795678 36.5831467,17.3542893 36.5100671,17.0294695 C36.4369875,16.7046498 36.4004474,16.3850688 36.4004474,16.0707269 L36.4004474,9.97249509 C36.4004474,7.81401425 36.0089485,6.27897839 35.2259508,5.36738703 C34.442953,4.45579568 33.1953767,4 31.4832215,4 C31.0656228,4 30.6114841,4.03143418 30.1208054,4.09430255 C29.6301266,4.15717092 29.1498881,4.23575639 28.6800895,4.33005894 C28.2102908,4.42436149 27.7718121,4.53962033 27.3646532,4.67583497 C26.9574944,4.81204961 26.6286353,4.95350344 26.3780761,5.10019646 C26.2736765,5.26784529 26.1901566,5.49836296 26.1275168,5.79174853 C26.064877,6.08513409 26.033557,6.37852013 26.033557,6.6719057 C26.033557,6.88146709 26.0439969,7.07531091 26.064877,7.25343811 C26.0857571,7.43156532 26.1275168,7.59397495 26.1901566,7.74066798 C26.461596,7.55206287 26.790455,7.36345776 27.1767338,7.17485265 C27.5630125,6.98624754 27.9649517,6.82383743 28.3825503,6.68762279 C28.800149,6.55140815 29.2177481,6.43614931 29.6353468,6.34184676 C30.0529454,6.2475442 30.4287843,6.20039293 30.7628635,6.20039293 C32.7464577,6.20039293 33.738255,7.37393566 33.738255,9.72102161 L33.738255,11.4184676 C33.341536,11.2508188 32.8821776,11.1198428 32.360179,11.0255403 C31.8381803,10.9312377 31.3266219,10.8840864 30.8255034,10.8840864 C30.0529454,10.8840864 29.3117078,10.9888669 28.6017897,11.1984283 C27.8918716,11.4079897 27.2706935,11.7170923 26.738255,12.1257367 C26.2058166,12.5343811 25.7829978,13.0425673 25.4697987,13.6502947 C25.1565996,14.2580221 25,14.9705305 25,15.7878193 C25,16.5212834 25.1252796,17.1499671 25.3758389,17.6738703 C25.6263982,18.1977736 25.9552573,18.632613 26.3624161,18.978389 C26.7695749,19.324165 27.2445937,19.5808777 27.787472,19.7485265 C28.3303503,19.9161753 28.8836689,20 29.4474273,20 C30.3870246,20 31.2483221,19.7956778 32.0313199,19.3870334 C32.8143177,18.978389 33.4146161,18.3863787 33.8322148,17.611002 L33.8322148,17.611002 Z M34,13.2380952 L34,16.5416667 C33.6875,16.9980157 33.234375,17.3551586 32.640625,17.6130952 C32.046875,17.8710319 31.4479165,18 30.84375,18 C30.09375,18 29.4322915,17.8115081 28.859375,17.4345238 C28.2864585,17.0575395 28,16.452381 28,15.6190476 C28,14.8253967 28.328125,14.1904762 28.984375,13.7142857 C29.640625,13.2380952 30.5833335,13 31.8125,13 C32.125,13 32.4947915,13.0198414 32.921875,13.0595238 C33.3489585,13.0992062 33.7083335,13.15873 34,13.2380952 L34,13.2380952 Z M46.2721893,18.0162602 L46.2721893,8.29268293 C46.4426034,8.07588059 46.666272,7.84281859 46.9431953,7.59349593 C47.2201185,7.34417328 47.5289939,7.116531 47.8698225,6.91056911 C48.2106511,6.70460721 48.5781067,6.53658537 48.9721893,6.40650407 C49.366272,6.27642276 49.7656803,6.21138211 50.1704142,6.21138211 C51.2781067,6.21138211 52.0449706,6.57994563 52.4710059,7.31707317 C52.8970413,8.05420071 53.1100592,9.05149035 53.1100592,10.3089431 L53.1100592,17.9186992 C52.8331359,17.9837398 52.5189349,18.0758806 52.1674556,18.195122 C51.8159763,18.3143633 51.5230768,18.4281844 51.2887574,18.5365854 C51.054438,18.9701895 50.9053254,19.4579944 50.8414201,20 L58.2224852,20 C58.2650886,19.7615178 58.2757398,19.4905147 58.2544379,19.1869919 C58.2331359,18.883469 58.2011833,18.6341463 58.1585799,18.4390244 C57.8603552,18.3306235 57.4982247,18.2384822 57.0721893,18.1626016 C56.646154,18.086721 56.2307694,18.0271001 55.8260355,17.9837398 L55.8260355,8.29268293 C55.9964495,8.07588059 56.2201182,7.84281859 56.4970414,7.59349593 C56.7739647,7.34417328 57.0828401,7.116531 57.4236686,6.91056911 C57.7644972,6.70460721 58.1319528,6.53658537 58.5260355,6.40650407 C58.9201182,6.27642276 59.3195265,6.21138211 59.7242604,6.21138211 C60.8319528,6.21138211 61.5988167,6.57994563 62.0248521,7.31707317 C62.4508874,8.05420071 62.6639053,9.05149035 62.6639053,10.3089431 L62.6639053,17.9186992 C62.3869821,17.9837398 62.0727811,18.0758806 61.7213018,18.195122 C61.3698225,18.3143633 61.0769229,18.4281844 60.8426036,18.5365854 C60.6082842,18.9701895 60.4591716,19.4579944 60.3952663,20 L67.9680473,20 C67.9893493,19.8915991 68,19.804878 68,19.7398374 L68,19.4471545 C68,19.0352302 67.9680473,18.699187 67.904142,18.4390244 C67.5846154,18.3306235 67.1798815,18.2439024 66.6899408,18.1788618 C66.2000002,18.1138211 65.7420117,18.0596204 65.3159763,18.0162602 C65.443787,15.3495935 65.5076923,12.6287261 65.5076923,9.85365854 C65.5076923,8.5962058 65.3798817,7.58265599 65.1242604,6.81300813 C64.8686391,6.04336027 64.5224854,5.45257469 64.0857988,5.04065041 C63.6491123,4.62872612 63.1485209,4.35230336 62.5840237,4.21138211 C62.0195265,4.07046087 61.4284022,4 60.8106509,4 C60.0863904,4 59.4366864,4.09756098 58.8615385,4.29268293 C58.2863905,4.48780488 57.7857987,4.73170732 57.3597633,5.02439024 C56.933728,5.31707317 56.5769231,5.6368562 56.2893491,5.98373984 C56.0017751,6.33062347 55.7940828,6.65582672 55.6662722,6.95934959 L55.5065089,6.95934959 C55.3573963,6.35230336 55.1443789,5.85907876 54.8674556,5.4796748 C54.5905324,5.10027084 54.2656806,4.80216819 53.8928994,4.58536585 C53.5201182,4.36856352 53.1100592,4.21680233 52.6627219,4.1300813 C52.2153846,4.04336027 51.7467454,4 51.2568047,4 C50.5538462,4 49.9201185,4.09214076 49.3556213,4.27642276 C48.7911241,4.46070477 48.3011834,4.69376677 47.8857988,4.97560976 C47.4704142,5.25745274 47.1242605,5.55555539 46.8473373,5.8699187 C46.570414,6.18428201 46.3573966,6.48238466 46.208284,6.76422764 L45.8887574,6.76422764 L45.8887574,4.3902439 C45.4414201,4.2601626 44.9408282,4.19512195 44.3869822,4.19512195 C43.8970416,4.19512195 43.4177516,4.23848222 42.9491124,4.32520325 C42.4804732,4.41192428 42.0757398,4.5203252 41.7349112,4.6504065 C41.5644972,4.88888872 41.4313609,5.16531149 41.335503,5.4796748 C41.239645,5.79403811 41.1810653,6.09214076 41.1597633,6.37398374 L43.4923077,6.37398374 L43.4923077,17.9186992 C43.1727811,17.9837398 42.8159762,18.0758806 42.4218935,18.195122 C42.0278108,18.3143633 41.7029586,18.4281844 41.4473373,18.5365854 C41.2130179,18.9701895 41.0639053,19.4579944 41,20 L48.6686391,20 C48.7112424,19.7615178 48.7218937,19.4905147 48.7005917,19.1869919 C48.6792898,18.883469 48.6473371,18.6341463 48.6047337,18.4390244 C48.306509,18.3306235 47.9443785,18.2439024 47.5183432,18.1788618 C47.0923079,18.1138211 46.6769232,18.0596204 46.2721893,18.0162602 L46.2721893,18.0162602 Z M74,17.5613577 L74,7.91122715 C74.3511661,7.43080956 74.8230453,6.99216726 75.4156379,6.59530026 C76.0082305,6.19843326 76.7873801,6 77.7530864,6 C79.0041152,6 80.0246914,6.50652757 80.8148148,7.51958225 C81.6049383,8.53263692 82,9.98955598 82,11.8903394 C82,13.7075718 81.5720165,15.1801567 80.7160494,16.308094 C79.8600823,17.4360313 78.5322361,18 76.7325103,18 C76.2277094,18 75.744856,17.9582247 75.2839506,17.8746736 C74.8230453,17.7911226 74.3950617,17.6866841 74,17.5613577 L74,17.5613577 Z M74.3012048,24.9640387 L74.3012048,19.428769 C74.6439091,19.6620561 75.0829985,19.8476258 75.6184739,19.9854772 C76.1539493,20.1233286 76.6572957,20.1922545 77.1285141,20.1922545 C78.2851406,20.1922545 79.3453815,19.9907793 80.3092369,19.5878285 C81.2730924,19.1848777 82.1030788,18.6069619 82.7991968,17.8540802 C83.4953148,17.1011985 84.0361446,16.1998617 84.4216867,15.1500692 C84.8072289,14.1002766 85,12.9391425 85,11.6666667 C85,10.2245276 84.8179383,9.01567559 84.4538153,8.04011065 C84.0896923,7.06454571 83.613119,6.27455048 83.0240964,5.67012448 C82.4350738,5.06569848 81.7817937,4.6362379 81.064257,4.38174274 C80.3467204,4.12724758 79.6345382,4 78.9277108,4 C78.2423027,4 77.6532796,4.06892593 77.1606426,4.20677732 C76.6680055,4.3446287 76.2342706,4.52489627 75.8594378,4.74757953 C75.4846049,4.97026279 75.1633198,5.2300601 74.8955823,5.52697095 C74.6278449,5.82388181 74.3975904,6.13139696 74.2048193,6.44951591 L73.8835341,6.44951591 L73.8835341,4.38174274 C73.4337349,4.25449516 72.9303881,4.19087137 72.373494,4.19087137 C71.9022756,4.19087137 71.4310577,4.23328707 70.9598394,4.31811895 C70.488621,4.40295083 70.0709503,4.50899032 69.7068273,4.6362379 C69.5354754,4.86952496 69.4016064,5.13992607 69.3052209,5.44744122 C69.2088353,5.75495636 69.1499332,6.04656508 69.1285141,6.32226833 L71.5060241,6.32226833 L71.5060241,24.9640387 C71.184739,25.0276625 70.8259704,25.1177961 70.4297189,25.2344398 C70.0334674,25.3510836 69.7068273,25.4624252 69.4497992,25.5684647 C69.2141903,25.9926232 69.064257,26.4698016 69,27 L77.4176707,27 C77.4605085,26.7667129 77.4712184,26.5122178 77.4497992,26.2365145 C77.42838,25.9608113 77.3962515,25.7275242 77.3534137,25.5366528 C77.1820617,25.473029 76.9678715,25.4147074 76.7108434,25.3616874 C76.4538153,25.3086674 76.1807229,25.2556479 75.8915663,25.2026279 C75.6024096,25.149608 75.3186079,25.1018901 75.0401606,25.0594744 C74.7617134,25.0170587 74.5153951,24.9852468 74.3012048,24.9640387 L74.3012048,24.9640387 Z M91.0074627,12.3614931 L100.902985,12.3614931 C100.967662,11.7956778 101,11.2403404 101,10.6954813 C101,9.71054371 100.892206,8.80419106 100.676617,7.97642436 C100.461028,7.14865766 100.132256,6.4413885 99.6902985,5.8546169 C99.2483415,5.26784529 98.6770317,4.81204961 97.9763682,4.48722986 C97.2757046,4.16241011 96.4402985,4 95.4701493,4 C94.3275292,4 93.2980927,4.2148001 92.3818408,4.64440079 C91.4655889,5.07400147 90.6840796,5.66601179 90.0373134,6.42043222 C89.3905473,7.17485265 88.8893035,8.05500982 88.5335821,9.06090373 C88.1778607,10.0667976 88,11.1460378 88,12.2986248 C88,13.3883433 88.1616915,14.3994759 88.4850746,15.3320236 C88.8084577,16.2645712 89.2827531,17.0766208 89.9079602,17.7681729 C90.5331673,18.459725 91.2931176,19.004584 92.1878109,19.4027505 C93.0825043,19.800917 94.1119403,20 95.2761194,20 C96.2893862,20 97.2487562,19.8637854 98.1542289,19.5913556 C99.0597015,19.3189258 99.8034826,19.0255403 100.385572,18.7111984 C100.536484,18.4806812 100.655058,18.1820565 100.741294,17.8153242 C100.827529,17.4485919 100.849088,17.1499671 100.80597,16.9194499 C100.504146,17.0242304 100.164594,17.1290113 99.7873134,17.2337917 C99.410033,17.3385722 99.0165839,17.4328748 98.6069652,17.5166994 C98.1973464,17.6005241 97.7931176,17.6686311 97.3942786,17.7210216 C96.9954396,17.7734121 96.6235491,17.7996071 96.278607,17.7996071 C94.7479272,17.7996071 93.4975124,17.3176164 92.5273632,16.3536346 C91.5572139,15.3896528 91.0505803,14.0589391 91.0074627,12.3614931 L91.0074627,12.3614931 Z M97.9525959,11 L91,11 C91.1053422,9.49673203 91.4951093,8.2875817 92.1693002,7.37254902 C92.8434912,6.45751634 93.7494357,6 94.8871332,6 C95.540256,6 96.0827688,6.15250561 96.5146727,6.45751634 C96.9465765,6.76252707 97.278405,7.16013072 97.510158,7.6503268 C97.7419111,8.14052288 97.8893905,8.67973856 97.9525959,9.26797386 C98.0158014,9.85620915 98.0158014,10.4335514 97.9525959,11 L97.9525959,11 Z M108.108262,7.4796748 L107.794872,7.4796748 L107.794872,4.3902439 C107.356125,4.2601626 106.865147,4.19512195 106.321937,4.19512195 C105.862298,4.19512195 105.402659,4.23848222 104.94302,4.32520325 C104.483381,4.41192428 104.075973,4.5203252 103.720798,4.6504065 C103.553656,4.88888872 103.423077,5.16531149 103.32906,5.4796748 C103.235043,5.79403811 103.177588,6.09214076 103.156695,6.37398374 L105.444444,6.37398374 L105.444444,17.9186992 C105.131054,17.9837398 104.781101,18.0758806 104.394587,18.195122 C104.008072,18.3143633 103.689459,18.4281844 103.438746,18.5365854 C103.208927,18.9701895 103.062678,19.4579944 103,20 L111.336182,20 C111.377968,19.7615178 111.388414,19.5013552 111.367521,19.2195122 C111.346629,18.9376692 111.315289,18.699187 111.273504,18.504065 C111.08547,18.4390244 110.860874,18.3739837 110.599715,18.3089431 C110.338557,18.2439024 110.066952,18.184282 109.7849,18.1300813 C109.502849,18.0758806 109.215574,18.0325203 108.923077,18 C108.630579,17.9674797 108.379867,17.9403796 108.17094,17.9186992 L108.17094,9.20325203 C108.567901,8.27100254 109.084995,7.59349593 109.722222,7.17073171 C110.359449,6.74796748 111.043685,6.53658537 111.774929,6.53658537 C112.150997,6.53658537 112.527066,6.58536585 112.903134,6.68292683 C113.279202,6.7804878 113.613485,6.91598933 113.905983,7.08943089 C113.968661,6.82926829 114,6.53658537 114,6.21138211 C114,5.79945783 113.958215,5.42005437 113.874644,5.07317073 C113.791073,4.7262871 113.697056,4.45528455 113.592593,4.2601626 C113.404558,4.17344157 113.169516,4.10840092 112.887464,4.06504065 C112.605413,4.02168038 112.37037,4 112.182336,4 C111.158594,4 110.281101,4.33062347 109.549858,4.99186992 C108.818614,5.65311637 108.338082,6.48238466 108.108262,7.4796748 L108.108262,7.4796748 Z" id="stamper"></path>
                                <path d="M125.564706,17.5104895 L125.345098,17.5104895 C125.303268,17.3174825 125.256209,17.0762238 125.203922,16.7867133 C125.151634,16.4972028 125.094118,16.2076923 125.031373,15.9181818 C124.968627,15.6286713 124.905882,15.3445223 124.843137,15.0657343 C124.780392,14.7869462 124.717647,14.5617714 124.654902,14.3902098 L122.678431,8.76083916 C122.511111,8.31048951 122.328104,7.83869448 122.129412,7.34545455 C121.930719,6.85221462 121.737255,6.42330986 121.54902,6.05874126 C121.904575,6.01585098 122.301961,5.96223776 122.741176,5.8979021 C123.180392,5.83356643 123.546405,5.75850832 123.839216,5.67272727 C123.901961,5.43683 123.959477,5.16340343 124.011765,4.85244755 C124.064052,4.54149168 124.090196,4.25734266 124.090196,4 L117,4 C117.020915,4.25734266 117.057516,4.54149168 117.109804,4.85244755 C117.162092,5.16340343 117.230065,5.43683 117.313725,5.67272727 C117.543791,5.77995322 117.8,5.88181818 118.082353,5.97832168 C118.364706,6.07482517 118.652288,6.15524476 118.945098,6.21958042 L124.058824,19.8909091 C123.598693,20.96317 122.89281,21.9174825 121.941176,22.7538462 C120.989543,23.5902098 119.802614,24.212121 118.380392,24.6195804 C118.422222,25.0913755 118.568627,25.5470861 118.819608,25.9867133 C119.070588,26.4263405 119.311111,26.7641027 119.541176,27 C120.963399,26.4853147 122.192157,25.7240092 123.227451,24.7160839 C124.262745,23.7081587 125.146405,22.4321678 125.878431,20.8881119 C126.171242,20.2876455 126.479739,19.5799532 126.803922,18.765035 C127.128104,17.9501167 127.447059,17.1083916 127.760784,16.2398601 C128.07451,15.3713287 128.372549,14.5135196 128.654902,13.6664336 C128.937255,12.8193475 129.193464,12.0634034 129.423529,11.3986014 L131.211765,6.05874126 C131.420915,6.03729587 131.671896,5.99976706 131.964706,5.94615385 C132.257516,5.89254063 132.498039,5.83356643 132.686275,5.76923077 C132.769935,5.5333335 132.843137,5.23846154 132.905882,4.88461538 C132.968627,4.53076923 133,4.23589727 133,4 L127.007843,4 C127.007843,4.57902098 127.091503,5.12587413 127.258824,5.64055944 C127.488889,5.74778538 127.786928,5.83356643 128.152941,5.8979021 C128.518954,5.96223776 128.848366,6.01585098 129.141176,6.05874126 C129.036601,6.25174825 128.932026,6.47692308 128.827451,6.73426573 C128.722876,6.99160839 128.6183,7.26503497 128.513725,7.55454545 C128.40915,7.84405594 128.309804,8.12820496 128.215686,8.40699301 C128.121569,8.68578105 128.043137,8.94312371 127.980392,9.17902098 L126.411765,14.2937063 C126.34902,14.4867133 126.275817,14.727972 126.192157,15.0174825 C126.108497,15.306993 126.030065,15.601865 125.956863,15.9020979 C125.88366,16.2023308 125.810457,16.4972028 125.737255,16.7867133 C125.664052,17.0762238 125.606536,17.3174825 125.564706,17.5104895 L125.564706,17.5104895 Z" id="y"></path>
                            </g>
                        </g>
                    </g>
                </g>
            </g>
        </g>
    </g>
</svg>